<svg width="116" height="23" viewBox="0 0 116 23" fill="none" xmlns="http://www.w3.org/2000/svg">
<g clip-path="url(#clip0_8_305)">
<path d="M17.0908 6.45703L20.8304 5.51146C20.1725 4.5339 19.3746 3.65782 18.462 2.91115L17.0908 6.45703Z" fill="black"/>
<path d="M13.5519 10.6124L16.7056 2.16448C16.7121 2.15313 16.7156 2.14025 16.7156 2.12715C16.7156 2.11405 16.7121 2.10117 16.7056 2.08983C14.6155 0.970995 12.226 0.535785 9.8747 0.845659L13.4647 10.5999" fill="black"/>
<path d="M22.9595 11.5092C23.0033 10.2469 22.839 8.98591 22.4734 7.77672C22.4284 7.62203 22.3354 7.48561 22.2076 7.3872C22.0799 7.28878 21.9242 7.23348 21.7628 7.22929H21.6007L16.8142 8.27439C16.6998 8.29911 16.593 8.35027 16.502 8.42374C16.4111 8.4972 16.3387 8.59094 16.2906 8.6974L13.0498 16.4609C12.9929 16.5916 12.9768 16.7362 13.0035 16.8759C13.0302 17.0157 13.0985 17.1442 13.1994 17.2448L16.6771 20.8155C16.7869 20.9315 16.9322 21.0077 17.09 21.0325C17.2478 21.0573 17.4094 21.0291 17.5497 20.9524C19.1436 19.9384 20.4681 18.5544 21.4101 16.9187C22.3521 15.2831 22.8837 13.4442 22.9595 11.559" fill="black"/>
<path d="M12.1773 12.5536L7.59009 0.07465C7.58054 0.0527796 7.56488 0.0341143 7.54499 0.0208786C7.5251 0.00764301 7.50182 0.000395496 7.47791 0C4.75664 0.915359 2.46746 2.79728 1.04591 5.28771C1.03075 5.3073 1.02253 5.33138 1.02253 5.35614C1.02253 5.38089 1.03075 5.40497 1.04591 5.42457L11.1302 14.93C11.1404 14.9454 11.1543 14.958 11.1706 14.9668C11.1869 14.9755 11.2052 14.9801 11.2237 14.9801C11.2422 14.9801 11.2604 14.9755 11.2767 14.9668C11.293 14.958 11.3069 14.9454 11.3172 14.93L12.1773 12.6158C12.1838 12.6045 12.1873 12.5916 12.1873 12.5785C12.1873 12.5655 12.1838 12.5525 12.1773 12.5412" fill="black"/>
<path d="M9.27515 22.7425C11.4367 23.2057 13.6859 23.0416 15.757 22.2697L0.549575 7.81249C0.0545859 9.36473 -0.108632 11.0033 0.070469 12.6224C0.24957 14.2416 0.767005 15.8053 1.58934 17.2123C2.41167 18.6193 3.52062 19.8386 4.8445 20.7911C6.1684 21.7437 7.67778 22.4086 9.27515 22.7425Z" fill="black"/>
<path d="M36.9816 10.9566H32.3571V4.83527H36.9816C37.4046 4.79877 37.8305 4.85106 38.232 4.98876C38.6335 5.12648 39.0017 5.34656 39.3128 5.63486C39.624 5.92316 39.8712 6.27328 40.0386 6.6627C40.206 7.05211 40.2899 7.47219 40.2849 7.89592C40.2899 8.31963 40.206 8.73973 40.0386 9.12914C39.8712 9.51855 39.624 9.86867 39.3128 10.157C39.0017 10.4453 38.6335 10.6654 38.232 10.8031C37.8305 10.9408 37.4046 10.9931 36.9816 10.9566ZM43.8998 21.1587L39.1879 13.5942C40.5176 13.3773 41.7184 12.6731 42.5553 11.6192C43.3922 10.5652 43.8049 9.23755 43.7128 7.89592C43.7406 7.08001 43.5969 6.26732 43.291 5.51018C42.9851 4.75304 42.5237 4.06822 41.9366 3.49981C41.3495 2.93138 40.6497 2.49197 39.8821 2.20984C39.1146 1.92772 38.2964 1.80913 37.4802 1.86171H28.9666V21.1587H32.3571V13.9301H35.7102L39.9732 21.1587H43.8998Z" fill="black"/>
<path d="M53.1241 1.86172H49.7336V21.1338H53.1241V1.86172Z" fill="black"/>
<path d="M68.0073 21.4686C69.5696 21.5062 71.1134 21.1241 72.4772 20.3624C73.8412 19.6009 74.975 18.4875 75.7606 17.1389L72.8686 15.6708C72.3703 16.5175 71.6603 17.2204 70.8082 17.7111C69.9561 18.2018 68.9909 18.4633 68.0073 18.4702C67.1035 18.4766 66.2082 18.2984 65.3762 17.9463C64.5442 17.5942 63.7933 17.0758 63.1697 16.423C62.5461 15.7703 62.063 14.997 61.7501 14.1508C61.4374 13.3046 61.3014 12.4035 61.3509 11.5029C61.3014 10.6028 61.4373 9.70225 61.7503 8.85673C62.0633 8.01121 62.5465 7.23869 63.1703 6.58691C63.7942 5.93513 64.5452 5.41793 65.3771 5.06723C66.2091 4.71654 67.1042 4.53982 68.0073 4.54798C68.99 4.55963 69.9532 4.8232 70.8046 5.31342C71.6558 5.80363 72.3666 6.50401 72.8686 7.34735L75.7606 5.8668C74.975 4.51821 73.8412 3.40491 72.4772 2.64327C71.1134 1.88164 69.5696 1.4996 68.0073 1.5371C66.6754 1.48216 65.3465 1.70079 64.1028 2.17944C62.8592 2.65808 61.7272 3.38654 60.7771 4.31968C59.827 5.25283 59.079 6.37076 58.5795 7.60424C58.0799 8.8377 57.8395 10.1604 57.8731 11.4904C57.8395 12.8204 58.0799 14.1431 58.5795 15.3766C59.079 16.61 59.827 17.728 60.7771 18.6612C61.7272 19.5943 62.8592 20.3227 64.1028 20.8014C65.3465 21.28 66.6754 21.4987 68.0073 21.4437" fill="black"/>
<path d="M97.0496 21.1214V1.86172H93.6716V9.74974H83.6247V1.86172H80.2342V21.1214H83.6247V12.7233H93.6716V21.1214H97.0496Z" fill="black"/>
<path d="M115.873 21.1214V18.1478H106.038V12.8103H115.673V9.83683H106.038V4.83528H115.873V1.86172H102.647V21.1214H115.873Z" fill="black"/>
</g>
<defs>
<clipPath id="clip0_8_305">
<rect width="115.873" height="23" fill="white"/>
</clipPath>
</defs>
</svg>
